<svg width="193" height="40" viewBox="0 0 193 40" fill="none" xmlns="http://www.w3.org/2000/svg">
<path d="M182.316 39.5951C180.738 39.5951 179.949 38.6955 179.949 36.8962C179.949 33.84 182.845 30.3772 188.637 26.5076C188.761 26.4583 188.909 26.3474 189.081 26.1749C189.056 25.4601 189.056 24.807 189.081 24.2155C189.106 23.6239 189.155 23.094 189.229 22.6257C189.032 22.8229 188.822 23.0201 188.6 23.2173C188.403 23.4144 188.181 23.6116 187.935 23.8088C187.245 24.351 186.616 24.6221 186.05 24.6221C184.817 24.6221 184.201 23.4637 184.201 21.1469C184.201 18.5837 184.484 16.6242 185.051 15.2687C185.175 15.0469 185.347 14.9359 185.569 14.9359C186.062 14.9359 186.308 15.244 186.308 15.8602C186.308 16.3285 186.197 17.0309 185.976 17.9675C185.68 19.1752 185.532 20.0994 185.532 20.7403C185.532 22.1698 185.84 22.8845 186.456 22.8845C186.949 22.8845 187.578 22.4409 188.342 21.5536C188.637 21.2332 188.909 20.9128 189.155 20.5924C189.402 20.272 189.611 19.9516 189.784 19.6312L190.19 18.9287L191.114 17.0063L191.41 16.3408C191.533 16.119 191.694 16.0081 191.891 16.0081C192.261 16.0081 192.445 16.1806 192.445 16.5257C192.445 16.575 192.421 16.6489 192.371 16.7475L192.298 16.8584V17.0802C191.879 17.9182 191.509 19.052 191.188 20.4815C190.893 21.911 190.659 23.6486 190.486 25.6943L192.482 25.0288C192.827 25.0288 193 25.226 193 25.6203C193 25.8422 192.889 25.9777 192.667 26.027C192.125 26.1995 191.349 26.4213 190.338 26.6925C190.24 27.5058 190.141 28.2206 190.042 28.8367C189.944 29.4529 189.845 29.9705 189.747 30.3895C189.155 32.8049 188.28 34.8506 187.122 36.5265C185.668 38.5722 184.065 39.5951 182.316 39.5951ZM182.353 38.5599C183.634 38.5599 184.903 37.574 186.16 35.6023C186.703 34.7396 187.146 33.8524 187.491 32.9404C187.861 32.0285 188.132 31.1042 188.305 30.1677C188.329 29.8473 188.329 29.4899 188.305 29.0955C188.206 28.6519 188.046 28.4301 187.824 28.4301C187.726 28.4301 187.615 28.467 187.491 28.541L187.417 28.504C183.129 31.4123 180.985 34.2221 180.985 36.9332C180.985 38.0177 181.441 38.5599 182.353 38.5599Z" fill="white"/>
<path d="M176.214 24.2155C175.967 24.2155 175.807 23.932 175.733 23.3652C175.659 22.7736 175.622 22.1698 175.622 21.5536C175.622 21.1593 175.622 20.8019 175.622 20.4815C175.647 20.1364 175.659 19.8776 175.659 19.7051C175.659 19.4586 175.672 19.1506 175.696 18.7809C175.721 18.3865 175.758 17.9429 175.807 17.4499C175.881 16.4394 175.918 15.6754 175.918 15.1578C175.918 14.9113 175.906 14.6772 175.881 14.4554C175.856 14.2089 175.844 13.9871 175.844 13.7899V13.642C175.844 13.3462 176.004 13.1984 176.325 13.1984C176.571 13.1984 176.707 13.3462 176.731 13.642C176.781 13.9131 176.818 14.4677 176.842 15.3057C176.867 16.1437 176.892 17.2528 176.916 18.633C176.916 19.0027 176.99 19.1875 177.138 19.1875C177.311 19.1875 177.569 18.9041 177.914 18.3372C178.629 17.1542 179.406 16.156 180.244 15.3426C180.86 14.7758 181.427 14.4923 181.944 14.4923C182.56 14.4923 183.09 14.7634 183.534 15.3057C183.682 15.4782 183.756 15.663 183.756 15.8602C183.756 16.1806 183.62 16.3408 183.349 16.3408C183.25 16.3408 183.14 16.3039 183.016 16.2299L182.979 16.2669C182.511 15.9218 182.203 15.7493 182.055 15.7493C181.464 15.7493 180.909 16.0697 180.391 16.7105C178.592 18.9287 177.483 21.1716 177.064 23.4391C176.966 23.9567 176.682 24.2155 176.214 24.2155Z" fill="white"/>
<path d="M170.958 24.9179C170.835 24.9179 170.724 24.8686 170.625 24.77C169.96 24.0799 169.615 23.0694 169.59 21.7385C169.59 21.6399 169.602 21.529 169.627 21.4057C169.652 21.2579 169.664 21.0977 169.664 20.9251L169.701 20.1487V20.0378C169.701 19.5942 169.541 19.434 169.22 19.5572C168.727 19.9023 168.062 20.4075 167.224 21.073C166.411 21.7138 165.425 22.5025 164.266 23.4391C163.773 23.9074 163.145 24.1415 162.381 24.1415C161.937 24.1415 161.555 23.9074 161.235 23.4391C160.939 22.9462 160.828 22.4779 160.902 22.0342C160.976 21.3934 161.235 20.7033 161.678 19.9639C162.122 19.1998 162.664 18.4481 163.305 17.7087C163.971 16.9447 164.673 16.2792 165.412 15.7123C166.177 15.1208 166.904 14.7018 167.594 14.4553C167.865 14.3568 168.124 14.2828 168.37 14.2335C168.617 14.1842 168.863 14.1596 169.109 14.1596C170.169 14.1596 170.699 14.5293 170.699 15.2687C170.699 15.5152 170.601 15.6384 170.403 15.6384C170.33 15.6384 170.256 15.6384 170.182 15.6384C170.108 15.6137 170.034 15.5768 169.96 15.5275C169.516 15.1578 169.11 14.9729 168.74 14.9729C168.37 14.9729 167.828 15.1947 167.113 15.6384C166.546 15.9834 165.992 16.4148 165.449 16.9323C164.907 17.4499 164.39 18.0291 163.897 18.6699C163.428 19.2861 163.059 19.8407 162.788 20.3336C162.516 20.8019 162.356 21.2209 162.307 21.5906C162.282 21.6892 162.27 21.8124 162.27 21.9603C162.27 22.3546 162.43 22.5518 162.751 22.5518C163.145 22.5518 163.884 22.1944 164.969 21.4797C167.557 19.7544 169.356 18.2263 170.366 16.8954C170.613 16.575 170.835 16.1436 171.032 15.6014C171.155 15.2564 171.414 15.0838 171.808 15.0838C172.252 15.0838 172.474 15.3303 172.474 15.8232C172.474 16.2176 172.289 16.7105 171.919 17.302C171.328 19.1013 171.032 20.3459 171.032 21.036C171.081 22.0958 171.34 22.9462 171.808 23.587C171.882 23.6609 171.919 23.7595 171.919 23.8827C171.919 24.1046 171.808 24.3264 171.586 24.5482C171.365 24.7947 171.155 24.9179 170.958 24.9179Z" fill="white"/>
<path d="M158.54 12.2371C158.171 12.2371 157.998 12.0153 158.023 11.5717L158.392 10.1668C158.466 9.89569 158.639 9.76013 158.91 9.76013C159.477 9.76013 159.711 9.99428 159.612 10.4626C159.588 10.8076 159.502 11.1896 159.354 11.6086C159.206 12.0276 158.935 12.2371 158.54 12.2371ZM157.246 23.8827C157.025 23.8827 156.877 23.7842 156.803 23.587C156.704 23.3159 156.642 22.9831 156.618 22.5888C156.593 22.1944 156.593 21.7508 156.618 21.2579C156.667 20.691 156.803 19.9762 157.025 19.1136C157.271 18.251 157.604 17.2528 158.023 16.119C158.121 15.8725 158.294 15.7493 158.54 15.7493C159.009 15.7493 159.169 15.9588 159.021 16.3778C158.922 16.6982 158.836 17.0186 158.762 17.339C158.688 17.6594 158.614 17.9798 158.54 18.3002C158.417 18.8671 158.318 19.3724 158.245 19.816C158.171 20.2597 158.134 20.654 158.134 20.9991C158.134 22.2068 158.146 22.8353 158.171 22.8846C158.245 23.131 158.171 23.3652 157.949 23.587C157.727 23.7842 157.493 23.8827 157.246 23.8827Z" fill="white"/>
<path d="M144.072 25.4355C143.727 25.4355 143.554 25.189 143.554 24.6961C143.554 24.3757 143.677 24.1662 143.924 24.0676C144.565 23.8704 145.563 23.5007 146.918 22.9585C147.19 22.786 147.51 22.5641 147.88 22.293C148.274 22.0219 148.705 21.6892 149.174 21.2948C149.494 21.0484 149.901 20.7156 150.394 20.2966C150.887 19.853 151.441 19.2861 152.057 18.596L153.092 17.413C153.339 17.0926 153.524 16.6736 153.647 16.156C153.696 15.9342 153.733 15.6877 153.758 15.4166C153.783 15.1455 153.795 14.8497 153.795 14.5293C153.795 13.9871 153.758 13.3709 153.684 12.6808C153.585 11.7442 153.364 10.9678 153.018 10.3517C152.821 9.93266 152.402 9.29184 151.761 8.4292C151.342 7.81303 150.381 7.06131 148.878 6.17402C148.508 5.92756 147.535 5.50856 145.957 4.91703C144.528 4.32551 143.702 3.91884 143.48 3.69702L142.556 2.77276L142.704 2.62488L142.519 2.69882C142.42 2.60024 142.371 2.44003 142.371 2.21821C142.371 1.5281 142.605 1.18304 143.073 1.18304C143.123 1.18304 143.197 1.20769 143.295 1.25699H143.369C143.468 1.38022 143.579 1.5281 143.702 1.70063C143.825 1.87316 143.961 2.05801 144.109 2.25518C144.207 2.35377 144.996 2.6865 146.475 3.25338C147.263 3.52449 147.904 3.77096 148.397 3.99278C148.915 4.2146 149.297 4.39945 149.543 4.54733L151.133 5.5825C151.651 5.97685 152.119 6.50675 152.538 7.17222C153.154 7.86233 153.647 8.62638 154.017 9.46437C154.386 10.3024 154.657 11.1896 154.83 12.1262C154.953 12.8903 155.04 13.5064 155.089 13.9747C155.163 14.443 155.2 14.7388 155.2 14.862C155.2 15.4289 155.126 15.9958 154.978 16.5626C154.756 17.4253 154.411 18.1154 153.943 18.633L152.686 19.9269C152.267 20.3459 151.811 20.8019 151.318 21.2948C150.85 21.7878 150.307 22.2807 149.691 22.7736C148.853 23.4637 148.003 24.0553 147.14 24.5482C146.721 24.7947 146.241 24.9549 145.698 25.0288C145.058 25.1521 144.589 25.263 144.294 25.3616C144.195 25.4108 144.121 25.4355 144.072 25.4355ZM141.447 22.9215C141.299 22.9215 141.139 22.7613 140.966 22.4409C140.621 21.8001 140.449 20.9251 140.449 19.816V19.7051C140.449 19.0889 140.51 18.3619 140.633 17.5239C140.781 16.6859 140.979 15.737 141.225 14.6772L141.927 11.5347C142.149 10.7953 142.408 9.78478 142.704 8.50314L143.11 5.43462C143.184 4.81845 143.406 4.51036 143.776 4.51036C144.146 4.51036 144.306 4.83077 144.257 5.47159L143.998 8.54011C143.998 8.56476 143.924 8.87285 143.776 9.46437C143.653 10.0559 143.456 10.9185 143.184 12.0523C143.037 12.4959 142.839 13.1491 142.593 14.0117C142.346 14.8497 142.125 15.7616 141.927 16.7475C141.73 17.7087 141.632 18.596 141.632 19.4094C141.632 20.3706 141.829 21.1223 142.223 21.6645L142.112 21.7015C142.162 21.9726 142.112 22.2437 141.964 22.5148C141.817 22.786 141.644 22.9215 141.447 22.9215Z" fill="white"/>
<path d="M129.738 26.9882C128.9 27.0129 128.235 26.409 127.742 25.1767C127.274 23.9443 127.039 22.0958 127.039 19.6312C127.039 18.2263 127.15 16.6612 127.372 14.9359C127.619 13.186 127.976 11.2636 128.444 9.16859C129.652 3.59841 131.106 0.813324 132.807 0.813324C133.472 0.813324 133.953 1.41717 134.249 2.62486C134.47 3.5368 134.544 4.36246 134.47 5.10187C134.224 7.49261 132.807 10.7706 130.219 14.9359C130.046 15.1331 129.837 15.3919 129.59 15.7123C129.368 16.0327 129.097 16.4147 128.777 16.8584C128.728 17.4253 128.678 17.9798 128.629 18.522C128.604 19.0643 128.592 19.5819 128.592 20.0748C128.592 20.9621 128.666 21.874 128.814 22.8106C129.085 24.2648 129.492 24.9918 130.034 24.9918C130.552 24.9918 131.069 24.6591 131.587 23.9936L132.659 22.256C132.782 22.0589 132.942 21.9603 133.139 21.9603C133.386 21.9603 133.509 22.0835 133.509 22.33C133.509 22.3793 133.497 22.4286 133.472 22.4779C133.472 22.5272 133.46 22.5764 133.435 22.6257C133.164 23.2419 132.918 23.7718 132.696 24.2155C132.499 24.6345 132.314 24.9672 132.141 25.2137C131.377 26.3967 130.576 26.9882 129.738 26.9882ZM132.77 2.66183C131.069 3.40124 129.8 7.46796 128.962 14.862C129.036 14.7881 129.147 14.6402 129.295 14.4184C132.03 10.5242 133.398 7.41867 133.398 5.10187C133.398 4.92934 133.386 4.74449 133.361 4.54731C133.337 4.32549 133.3 4.07902 133.25 3.80791C133.102 3.14245 132.942 2.76042 132.77 2.66183Z" fill="white"/>
<path d="M123.373 24.9179C123.25 24.9179 123.139 24.8686 123.041 24.77C122.375 24.0799 122.03 23.0694 122.005 21.7385C122.005 21.6399 122.018 21.529 122.042 21.4057C122.067 21.2579 122.079 21.0977 122.079 20.9251L122.116 20.1487V20.0378C122.116 19.5942 121.956 19.434 121.636 19.5572C121.143 19.9023 120.477 20.4075 119.639 21.073C118.826 21.7138 117.84 22.5025 116.682 23.4391C116.189 23.9074 115.56 24.1415 114.796 24.1415C114.353 24.1415 113.971 23.9074 113.65 23.4391C113.354 22.9462 113.244 22.4779 113.317 22.0342C113.391 21.3934 113.65 20.7033 114.094 19.9639C114.537 19.1998 115.08 18.4481 115.721 17.7087C116.386 16.9447 117.088 16.2792 117.828 15.7123C118.592 15.1208 119.319 14.7018 120.009 14.4553C120.28 14.3568 120.539 14.2828 120.785 14.2335C121.032 14.1842 121.278 14.1596 121.525 14.1596C122.585 14.1596 123.115 14.5293 123.115 15.2687C123.115 15.5152 123.016 15.6384 122.819 15.6384C122.745 15.6384 122.671 15.6384 122.597 15.6384C122.523 15.6137 122.449 15.5768 122.375 15.5275C121.932 15.1578 121.525 14.9729 121.155 14.9729C120.785 14.9729 120.243 15.1947 119.528 15.6384C118.962 15.9834 118.407 16.4148 117.865 16.9323C117.323 17.4499 116.805 18.0291 116.312 18.6699C115.844 19.2861 115.474 19.8407 115.203 20.3336C114.932 20.8019 114.772 21.2209 114.722 21.5906C114.698 21.6892 114.685 21.8124 114.685 21.9603C114.685 22.3546 114.846 22.5518 115.166 22.5518C115.56 22.5518 116.3 22.1944 117.384 21.4797C119.972 19.7544 121.771 18.2263 122.782 16.8954C123.028 16.575 123.25 16.1436 123.447 15.6014C123.571 15.2564 123.829 15.0838 124.224 15.0838C124.667 15.0838 124.889 15.3303 124.889 15.8232C124.889 16.2176 124.704 16.7105 124.335 17.302C123.743 19.1013 123.447 20.3459 123.447 21.036C123.497 22.0958 123.755 22.9462 124.224 23.587C124.298 23.6609 124.335 23.7595 124.335 23.8827C124.335 24.1046 124.224 24.3264 124.002 24.5482C123.78 24.7947 123.571 24.9179 123.373 24.9179Z" fill="white"/>
<path d="M108.984 24.807C108.047 24.807 107.295 24.3634 106.729 23.4761C106.26 22.7613 106.026 21.9849 106.026 21.147C106.026 20.235 106.149 19.3847 106.396 18.596C106.667 17.7827 107.037 17.0309 107.505 16.3408C108.54 14.862 109.834 14.1226 111.387 14.1226C111.929 14.1226 112.36 14.3321 112.681 14.7511C113.026 15.1455 113.161 15.5645 113.087 16.0081C112.964 16.7229 112.705 17.0802 112.311 17.0802C112.139 17.0802 112.052 16.994 112.052 16.8214C112.052 16.7229 112.089 16.6243 112.163 16.5257H112.126C112.225 16.4024 112.274 16.2422 112.274 16.0451C112.274 15.774 112.151 15.5398 111.904 15.3426C111.683 15.1208 111.436 15.0099 111.165 15.0099C110.081 15.0099 109.144 15.7123 108.355 17.1172C107.665 18.3249 107.32 19.5942 107.32 20.9251C107.32 21.5906 107.493 22.1698 107.838 22.6627C108.207 23.2296 108.713 23.513 109.353 23.513C110.438 23.513 111.461 23.131 112.422 22.367C112.521 22.2684 112.644 22.2191 112.792 22.2191C113.038 22.2191 113.161 22.367 113.161 22.6627C113.161 22.8599 113.087 23.0324 112.94 23.1803C112.003 24.2648 110.684 24.807 108.984 24.807Z" fill="white"/>
<path d="M99.3432 25.0288C98.5545 25.0288 97.8891 24.7207 97.3468 24.1045C96.8539 23.5377 96.6074 22.8969 96.6074 22.1821C96.6074 20.8512 97.2113 19.434 98.419 17.9305C98.9119 17.2897 99.4418 16.7228 100.009 16.2299C100.576 15.737 101.167 15.2933 101.783 14.899C101.906 14.825 102.079 14.7881 102.301 14.7881C103.016 14.7881 103.373 14.9606 103.373 15.3056C103.373 15.4042 103.299 15.5151 103.151 15.6384V15.6753C103.521 16.1929 103.891 16.7352 104.26 17.302C104.63 17.8689 104.815 18.5344 104.815 19.2984C104.815 19.9392 104.642 20.5924 104.297 21.2578C103.977 21.9233 103.533 22.5518 102.966 23.1433C102.424 23.7102 101.833 24.1662 101.192 24.5112C100.551 24.8563 99.9347 25.0288 99.3432 25.0288ZM99.3802 23.8827C99.9964 23.8581 100.649 23.6116 101.34 23.1433C102.03 22.6504 102.621 22.0589 103.114 21.3688C103.632 20.6786 103.903 20.0255 103.928 19.4093C103.977 18.4481 103.484 17.3636 102.449 16.156C101.389 16.92 100.452 17.8196 99.639 18.8548C98.6778 20.1118 98.1971 21.2455 98.1971 22.256C98.1971 23.3405 98.5915 23.8827 99.3802 23.8827Z" fill="white"/>
<path d="M83.6063 25.2507C83.2613 25.2507 83.1011 25.1028 83.1257 24.807C83.0271 24.6592 82.8792 24.3264 82.6821 23.8088V23.8458C82.6821 23.9937 82.6697 23.9814 82.6451 23.8088C82.6204 23.6117 82.5958 23.3652 82.5712 23.0694C82.5465 22.7737 82.5342 22.5395 82.5342 22.367L82.8299 19.4094C82.9532 18.3742 83.138 17.3267 83.3845 16.2669L84.1239 13.3463C84.469 12.04 84.9865 9.93271 85.6766 7.02438C85.7259 6.53145 85.8122 5.87831 85.9354 5.06496C86.0833 4.25162 86.2435 3.27807 86.4161 2.14432C86.5146 1.52815 86.7858 1.22006 87.2294 1.22006C87.5991 1.22006 87.784 1.52815 87.784 2.14432V2.18129C87.784 2.72352 87.6854 3.43827 87.4882 4.32556C87.3157 5.1882 87.1308 6.23568 86.9336 7.46802C86.8351 7.93631 86.7118 8.44157 86.5639 8.9838C86.4407 9.50138 86.2805 10.0683 86.0833 10.6844C85.8862 11.3252 85.7136 11.9044 85.5657 12.422C85.4179 12.9396 85.307 13.3709 85.233 13.716C85.0851 14.3075 84.9126 15.0839 84.7154 16.0451C84.5429 17.0063 84.3334 18.1524 84.0869 19.4833C84.013 20.1242 83.9514 20.691 83.9021 21.184C83.8528 21.6523 83.8281 22.0466 83.8281 22.367C83.8281 22.5149 83.8281 22.6505 83.8281 22.7737C83.8528 22.8723 83.8774 22.9585 83.9021 23.0325C83.9021 22.9832 84.0253 23.1927 84.2718 23.661C84.5922 23.5131 85.2453 23.3652 86.2312 23.2173L87.4882 23.2543C87.8086 23.2789 88.0674 23.3036 88.2646 23.3282C88.4864 23.3529 88.6466 23.3652 88.7452 23.3652H88.8561C89.1518 23.3652 89.5216 23.2913 89.9652 23.1434C90.2117 23.0448 90.4212 22.9832 90.5937 22.9585C90.7909 22.9092 90.9387 22.8723 91.0373 22.8476C92.7133 22.6258 93.8471 22.3054 94.4386 21.8864C94.6358 21.7139 94.8206 21.6276 94.9931 21.6276C95.2396 21.6276 95.3628 21.8371 95.3628 22.2561C95.3628 22.9955 95.178 23.5131 94.8083 23.8088C94.6851 23.9074 94.5125 24.006 94.2907 24.1046C94.0935 24.1786 93.8471 24.2402 93.5513 24.2895L91.1482 24.807C90.606 24.9056 90.1254 24.9919 89.7064 25.0658C89.2874 25.1644 88.9177 25.2137 88.5973 25.2137C88.4248 25.2137 88.2399 25.2014 88.0427 25.1767C87.8456 25.1767 87.6237 25.1644 87.3773 25.1398C86.835 25.0658 86.4284 25.0289 86.1573 25.0289C85.615 24.9796 84.7647 25.0535 83.6063 25.2507Z" fill="white"/>
<path d="M70.4559 26.9882C69.6179 27.0129 68.9524 26.409 68.4595 25.1767C67.9912 23.9443 67.7571 22.0958 67.7571 19.6312C67.7571 18.2263 67.868 16.6612 68.0898 14.9359C68.3363 13.186 68.6937 11.2636 69.1619 9.16859C70.3696 3.59841 71.8238 0.813324 73.5244 0.813324C74.1899 0.813324 74.6705 1.41717 74.9663 2.62486C75.1881 3.5368 75.262 4.36246 75.1881 5.10187C74.9416 7.49261 73.5244 10.7706 70.9365 14.9359C70.764 15.1331 70.5545 15.3919 70.308 15.7123C70.0862 16.0327 69.8151 16.4147 69.4947 16.8584C69.4454 17.4253 69.3961 17.9798 69.3468 18.522C69.3222 19.0643 69.3098 19.5819 69.3098 20.0748C69.3098 20.9621 69.3838 21.874 69.5316 22.8106C69.8028 24.2648 70.2094 24.9918 70.7517 24.9918C71.2692 24.9918 71.7868 24.6591 72.3044 23.9936L73.3765 22.256C73.4998 22.0589 73.66 21.9603 73.8572 21.9603C74.1036 21.9603 74.2269 22.0835 74.2269 22.33C74.2269 22.3793 74.2145 22.4286 74.1899 22.4779C74.1899 22.5272 74.1776 22.5764 74.1529 22.6257C73.8818 23.2419 73.6353 23.7718 73.4135 24.2155C73.2163 24.6345 73.0315 24.9672 72.859 25.2137C72.0949 26.3967 71.2939 26.9882 70.4559 26.9882ZM73.4875 2.66183C71.7868 3.40124 70.5175 7.46796 69.6795 14.862C69.7535 14.7881 69.8644 14.6402 70.0123 14.4184C72.7481 10.5242 74.116 7.41867 74.116 5.10187C74.116 4.92934 74.1036 4.74449 74.079 4.54731C74.0543 4.32549 74.0174 4.07902 73.9681 3.80791C73.8202 3.14245 73.66 2.76042 73.4875 2.66183Z" fill="white"/>
<path d="M64.0911 24.9179C63.9678 24.9179 63.8569 24.8686 63.7583 24.77C63.0929 24.0799 62.7478 23.0694 62.7232 21.7385C62.7232 21.6399 62.7355 21.529 62.7601 21.4057C62.7848 21.2579 62.7971 21.0977 62.7971 20.9251L62.8341 20.1487V20.0378C62.8341 19.5942 62.6739 19.434 62.3535 19.5572C61.8605 19.9023 61.1951 20.4075 60.3571 21.073C59.5437 21.7138 58.5579 22.5025 57.3995 23.4391C56.9065 23.9074 56.278 24.1415 55.514 24.1415C55.0703 24.1415 54.6883 23.9074 54.3679 23.4391C54.0722 22.9462 53.9612 22.4779 54.0352 22.0342C54.1091 21.3934 54.3679 20.7033 54.8116 19.9639C55.2552 19.1998 55.7974 18.4481 56.4382 17.7087C57.1037 16.9447 57.8061 16.2792 58.5455 15.7123C59.3096 15.1208 60.0367 14.7018 60.7268 14.4553C60.9979 14.3568 61.2567 14.2828 61.5032 14.2335C61.7496 14.1842 61.9961 14.1596 62.2426 14.1596C63.3024 14.1596 63.8323 14.5293 63.8323 15.2687C63.8323 15.5152 63.7337 15.6384 63.5365 15.6384C63.4626 15.6384 63.3886 15.6384 63.3147 15.6384C63.2408 15.6137 63.1668 15.5768 63.0929 15.5275C62.6492 15.1578 62.2426 14.9729 61.8729 14.9729C61.5032 14.9729 60.9609 15.1947 60.2462 15.6384C59.6793 15.9834 59.1247 16.4148 58.5825 16.9323C58.0403 17.4499 57.5227 18.0291 57.0298 18.6699C56.5615 19.2861 56.1918 19.8407 55.9207 20.3336C55.6495 20.8019 55.4893 21.2209 55.44 21.5906C55.4154 21.6892 55.4031 21.8124 55.4031 21.9603C55.4031 22.3546 55.5633 22.5518 55.8837 22.5518C56.278 22.5518 57.0174 22.1944 58.1019 21.4797C60.6898 19.7544 62.489 18.2263 63.4996 16.8954C63.746 16.575 63.9678 16.1436 64.165 15.6014C64.2883 15.2564 64.547 15.0838 64.9414 15.0838C65.385 15.0838 65.6069 15.3303 65.6069 15.8232C65.6069 16.2176 65.422 16.7105 65.0523 17.302C64.4608 19.1013 64.165 20.3459 64.165 21.036C64.2143 22.0958 64.4731 22.9462 64.9414 23.587C65.0153 23.6609 65.0523 23.7595 65.0523 23.8827C65.0523 24.1046 64.9414 24.3264 64.7196 24.5482C64.4977 24.7947 64.2883 24.9179 64.0911 24.9179Z" fill="white"/>
<path d="M42.3239 24.2155C41.9542 24.2155 41.8187 23.8827 41.9172 23.2173C41.9912 22.3546 42.1144 21.2948 42.2869 20.0378C42.4841 18.7562 42.7183 17.2774 42.9894 15.6014C43.1126 15.2317 43.3098 15.0468 43.5809 15.0468C43.926 15.0468 44.0985 15.207 44.0985 15.5275C44.0985 15.5521 44.0985 15.6014 44.0985 15.6753C44.0985 15.7246 44.0862 15.7862 44.0615 15.8602C44.0122 16.082 43.9629 16.3285 43.9136 16.5996C43.889 16.8461 43.8767 17.1172 43.8767 17.4129C43.8767 17.758 43.889 18.1277 43.9136 18.522C43.9629 18.9164 44.0369 19.3354 44.1355 19.779C44.2833 19.779 44.8872 19.2491 45.947 18.1893C47.0068 17.1788 47.8694 16.5749 48.5349 16.3778V16.3408C48.6088 16.3162 48.6828 16.3038 48.7567 16.3038C48.8307 16.3038 48.8923 16.3038 48.9416 16.3038C49.4099 16.3038 49.718 16.5257 49.8658 16.9693L50.3834 20.4075C50.6052 21.911 51.0119 22.6627 51.6034 22.6627C51.8499 22.6627 52.0964 22.5764 52.3428 22.4039C52.6879 22.1574 53.0206 21.8987 53.341 21.6275C53.6614 21.3318 53.9449 21.0237 54.1913 20.7033C54.3392 20.654 54.4378 20.6293 54.4871 20.6293C54.6596 20.6293 54.7459 20.7403 54.7459 20.9621C54.7459 21.11 54.6473 21.3071 54.4501 21.5536C54.1297 21.9479 53.797 22.3546 53.4519 22.7736C53.1069 23.168 52.7618 23.476 52.4168 23.6979C51.9485 23.969 51.5541 24.1045 51.2337 24.1045C50.5683 24.1045 50.063 23.5623 49.718 22.4779L49.0895 19.4833C48.8676 18.4727 48.5842 18.0168 48.2391 18.1154C48.2145 18.1154 48.1775 18.1154 48.1282 18.1154C48.1036 18.0907 48.0666 18.0784 48.0173 18.0784C47.9187 18.0784 47.7955 18.103 47.6476 18.1523C47.5244 18.2016 47.4012 18.2879 47.2779 18.4111L46.3906 19.3354C45.6266 20.1241 44.9858 20.8881 44.4682 21.6275C43.9506 22.3669 43.5316 23.0571 43.2112 23.6979C43.014 24.0429 42.7183 24.2155 42.3239 24.2155Z" fill="white"/>
<path d="M34.7537 25.0288C33.965 25.0288 33.2996 24.7207 32.7573 24.1045C32.2644 23.5377 32.0179 22.8969 32.0179 22.1821C32.0179 20.8512 32.6218 19.434 33.8295 17.9305C34.3224 17.2897 34.8523 16.7228 35.4192 16.2299C35.9861 15.737 36.5776 15.2933 37.1938 14.899C37.317 14.825 37.4895 14.7881 37.7114 14.7881C38.4261 14.7881 38.7835 14.9606 38.7835 15.3056C38.7835 15.4042 38.7095 15.5151 38.5617 15.6384V15.6753C38.9314 16.1929 39.3011 16.7352 39.6708 17.302C40.0405 17.8689 40.2253 18.5344 40.2253 19.2984C40.2253 19.9392 40.0528 20.5924 39.7077 21.2578C39.3873 21.9233 38.9437 22.5518 38.3768 23.1433C37.8346 23.7102 37.2431 24.1662 36.6022 24.5112C35.9614 24.8563 35.3453 25.0288 34.7537 25.0288ZM34.7907 23.8827C35.4069 23.8581 36.06 23.6116 36.7501 23.1433C37.4402 22.6504 38.0318 22.0589 38.5247 21.3688C39.0423 20.6786 39.3134 20.0255 39.338 19.4093C39.3873 18.4481 38.8944 17.3636 37.8592 16.156C36.7994 16.92 35.8628 17.8196 35.0495 18.8548C34.0883 20.1118 33.6077 21.2455 33.6077 22.256C33.6077 23.3405 34.002 23.8827 34.7907 23.8827Z" fill="white"/>
<path d="M25.9045 25.2876C25.2883 25.2876 24.7584 25.1767 24.3148 24.9549C23.8958 24.7331 23.6863 24.425 23.6863 24.0307C23.6863 23.7595 23.8095 23.624 24.056 23.624C24.0313 23.624 24.2285 23.7102 24.6475 23.8828C25.0665 24.0307 25.5101 24.1046 25.9784 24.1046C27.4079 24.1046 28.3076 23.4391 28.6773 22.1082C28.8251 21.5413 28.3076 20.6048 27.1245 19.2985C26.2865 18.3865 25.8675 17.3514 25.8675 16.193C25.8675 15.7986 26.04 15.3427 26.3851 14.8251C26.7302 14.2828 27.1492 13.8146 27.6421 13.4202C28.135 13.0012 28.6033 12.7917 29.047 12.7917C29.8357 12.7917 30.2793 12.9889 30.3779 13.3832C30.4025 13.4572 30.4149 13.5311 30.4149 13.6051C30.4395 13.679 30.4518 13.7529 30.4518 13.8269C30.4518 14.2212 30.3039 14.4184 30.0082 14.4184C29.8357 14.4184 29.7001 14.3568 29.6015 14.2336C29.4783 14.1103 29.3057 14.0487 29.0839 14.0487C29.0346 14.0487 28.973 14.0487 28.8991 14.0487C28.8251 14.0487 28.7635 14.0734 28.7142 14.1226C27.8269 14.5663 27.3217 15.1825 27.1984 15.9712C27.0999 16.6613 27.6298 17.6225 28.7882 18.8548C29.8233 19.9639 30.3409 20.9991 30.3409 21.9603C30.3409 23.0201 29.7987 23.8705 28.7142 24.5113C27.8762 25.0289 26.9397 25.2876 25.9045 25.2876Z" fill="white"/>
<path d="M17.1408 24.2155C16.8944 24.2155 16.7342 23.932 16.6602 23.3652C16.5863 22.7736 16.5493 22.1698 16.5493 21.5536C16.5493 21.1593 16.5493 20.8019 16.5493 20.4815C16.574 20.1364 16.5863 19.8776 16.5863 19.7051C16.5863 19.4586 16.5986 19.1506 16.6233 18.7809C16.6479 18.3865 16.6849 17.9429 16.7342 17.4499C16.8081 16.4394 16.8451 15.6754 16.8451 15.1578C16.8451 14.9113 16.8328 14.6772 16.8081 14.4554C16.7835 14.2089 16.7711 13.9871 16.7711 13.7899V13.642C16.7711 13.3462 16.9313 13.1984 17.2518 13.1984C17.4982 13.1984 17.6338 13.3462 17.6584 13.642C17.7077 13.9131 17.7447 14.4677 17.7693 15.3057C17.794 16.1437 17.8186 17.2528 17.8433 18.633C17.8433 19.0027 17.9172 19.1875 18.0651 19.1875C18.2376 19.1875 18.4964 18.9041 18.8415 18.3372C19.5562 17.1542 20.3326 16.156 21.1706 15.3426C21.7868 14.7758 22.3536 14.4923 22.8712 14.4923C23.4874 14.4923 24.0173 14.7634 24.4609 15.3057C24.6088 15.4782 24.6828 15.663 24.6828 15.8602C24.6828 16.1806 24.5472 16.3408 24.2761 16.3408C24.1775 16.3408 24.0666 16.3039 23.9434 16.2299L23.9064 16.2669C23.4381 15.9218 23.13 15.7493 22.9821 15.7493C22.3906 15.7493 21.8361 16.0697 21.3185 16.7105C19.5193 18.9287 18.4101 21.1716 17.9912 23.4391C17.8926 23.9567 17.6091 24.2155 17.1408 24.2155Z" fill="white"/>
<path d="M10.9908 25.2507C9.90634 25.2507 9.01906 24.9179 8.32895 24.2525C7.66348 23.587 7.33075 22.6874 7.33075 21.5537C7.33075 21.3072 7.34307 21.0607 7.36772 20.8143C7.41701 20.5678 7.46631 20.3213 7.5156 20.0749C7.78672 19.015 8.53844 17.8813 9.77078 16.6736C11.151 15.3673 12.3464 14.7142 13.3569 14.7142C14.1949 14.7142 14.5892 15.1825 14.5399 16.119C14.5153 17.3267 13.8498 18.5098 12.5435 19.6682C11.9767 20.1365 11.3851 20.5678 10.769 20.9621C10.1775 21.3565 9.54896 21.5537 8.8835 21.5537H8.84653C8.92047 23.1557 9.74614 23.9567 11.3235 23.9567C11.8411 23.9567 12.4203 23.8335 13.0611 23.587C13.1104 23.5624 13.1844 23.55 13.283 23.55C13.6034 23.55 13.7636 23.7103 13.7636 24.0307C13.7636 24.2525 13.6527 24.425 13.4308 24.5482C12.7407 25.0165 11.9274 25.2507 10.9908 25.2507ZM9.84472 19.8161C10.6088 19.6435 11.2619 19.3231 11.8041 18.8548C12.7654 18.0415 13.246 17.2651 13.246 16.5257V16.4518C13.246 16.2792 13.1844 16.1437 13.0611 16.0451C12.9379 15.9465 12.8516 15.9219 12.8023 15.9712C12.0383 15.9712 11.2249 16.5257 10.3623 17.6348C10.2391 17.8073 10.0912 18.0415 9.91866 18.3373C9.74614 18.6084 9.56128 18.9411 9.36411 19.3354C9.33946 19.3847 9.32714 19.434 9.32714 19.4833C9.32714 19.7051 9.49967 19.8161 9.84472 19.8161Z" fill="white"/>
<path d="M3.1055 16.082C2.93297 15.9342 2.84671 15.7 2.84671 15.3796C2.84671 14.9606 3.01923 14.6032 3.36429 14.3075L4.73219 13.1244C5.07724 12.9026 5.49624 12.5945 5.98917 12.2002C6.50675 11.8058 7.1106 11.3375 7.80071 10.7953C8.17041 10.4749 8.52779 10.1545 8.87285 9.83407C9.2179 9.48902 9.50134 9.08235 9.72316 8.61406C9.89569 8.269 10.0066 7.99789 10.0559 7.80071C10.1052 7.60354 10.1298 7.45566 10.1298 7.35707C10.1298 7.20919 10.0682 7.03666 9.94498 6.83949C9.82175 6.61767 9.73549 6.43282 9.68619 6.28494C9.51366 6.06311 9.27952 5.90291 8.98376 5.80432C8.46618 5.65644 8.14577 5.54553 8.02253 5.47159C7.85001 5.373 7.61586 5.24977 7.3201 5.10189C7.04898 4.92936 6.72858 4.73219 6.35887 4.51037C5.93988 4.33784 5.4223 4.11602 4.80613 3.8449C4.2146 3.54914 3.53682 3.20408 2.77276 2.80974C2.64953 2.66186 2.477 2.50165 2.25518 2.32912C2.03336 2.13195 1.77457 1.91013 1.47881 1.66366C1.38022 1.56507 1.33093 1.40487 1.33093 1.18305C1.33093 0.911932 1.40487 0.653141 1.55275 0.406674C1.70063 0.135558 1.86083 0 2.03336 0C2.13195 0 2.21821 0.0369705 2.29215 0.110911L2.32912 0.147881C2.55094 0.345056 2.896 0.653141 3.36429 1.07214C3.58611 1.22002 3.83258 1.3679 4.10369 1.51578C4.37481 1.63901 4.67057 1.76225 4.99098 1.88548C5.18815 1.98407 5.43462 2.1073 5.73038 2.25518C6.02614 2.40306 6.3712 2.58791 6.76555 2.80974C6.96272 2.90832 7.19686 3.04388 7.46798 3.21641C7.76374 3.36429 8.1088 3.56146 8.50315 3.80793L9.4274 4.10369C9.64922 4.17763 9.85872 4.28854 10.0559 4.43642C10.2531 4.55966 10.4133 4.73219 10.5365 4.95401C11.1034 5.66877 11.3868 6.46978 11.3868 7.35707C11.3868 8.14577 11.1527 8.93446 10.6844 9.72316C10.29 10.4133 9.55063 11.2636 8.46618 12.2741C7.99789 12.7424 7.44333 13.186 6.80252 13.605C6.26029 13.9501 5.85361 14.2089 5.5825 14.3814C5.33603 14.5539 5.08956 14.7511 4.8431 14.9729C4.62127 15.1948 4.23925 15.5521 3.69702 16.0451C3.49985 16.2176 3.30267 16.2299 3.1055 16.082ZM0.924255 26.9513C0.776374 26.9513 0.65314 26.865 0.554553 26.6925C0.184851 25.8791 0 24.9179 0 23.8088C0 23.4145 0.0369702 22.8353 0.110911 22.0712C0.135557 21.7015 0.147881 21.3811 0.147881 21.11C0.172528 20.8389 0.184851 20.617 0.184851 20.4445C0.184851 19.9023 0.209498 19.3601 0.258791 18.8178C0.308085 18.251 0.369702 17.6718 0.443642 17.0802L0.850315 13.8638C0.948902 13.1737 1.07214 12.2741 1.22002 11.165C1.3679 10.0312 1.5281 8.688 1.70063 7.13525C1.79922 6.29726 1.87316 5.54553 1.92245 4.88007C1.9471 4.2639 2.16892 3.95581 2.58791 3.95581C3.0562 3.95581 3.29035 4.28854 3.29035 4.95401C3.24105 5.20048 3.16711 5.52088 3.06853 5.91523C2.99459 6.28493 2.90832 6.7409 2.80974 7.28313L2.1073 13.9747C2.03336 14.6402 1.93477 15.4905 1.81154 16.5257C1.68831 17.5608 1.5774 18.8055 1.47881 20.2597L1.3679 22.1452C1.34325 22.4902 1.3186 22.786 1.29396 23.0324C1.29396 23.2789 1.29396 23.4638 1.29396 23.587C1.29396 24.3017 1.42951 24.9302 1.70063 25.4725C1.74992 25.6203 1.77457 25.7436 1.77457 25.8422C1.77457 26.1133 1.67598 26.3598 1.47881 26.5816C1.30628 26.828 1.12143 26.9513 0.924255 26.9513Z" fill="white"/>
</svg>
